<?xml version="1.0" encoding="UTF-8" standalone="no"?>
<!-- Created with Inkscape (http://www.inkscape.org/) -->

<svg
   width="16.138205mm"
   height="5.6485782mm"
   viewBox="0 0 16.138205 5.6485782"
   version="1.1"
   id="svg1733"
   inkscape:version="1.1.2 (0a00cf5339, 2022-02-04)"
   sodipodi:docname="cc.svg"
   xmlns:inkscape="http://www.inkscape.org/namespaces/inkscape"
   xmlns:sodipodi="http://sodipodi.sourceforge.net/DTD/sodipodi-0.dtd"
   xmlns="http://www.w3.org/2000/svg"
   xmlns:svg="http://www.w3.org/2000/svg">
  <sodipodi:namedview
     id="namedview1735"
     pagecolor="#ffffff"
     bordercolor="#666666"
     borderopacity="1.0"
     inkscape:pageshadow="2"
     inkscape:pageopacity="0.0"
     inkscape:pagecheckerboard="0"
     inkscape:document-units="mm"
     showgrid="false"
     fit-margin-top="0"
     fit-margin-left="0"
     fit-margin-right="0"
     fit-margin-bottom="0"
     inkscape:zoom="7.6684624"
     inkscape:cx="29.471358"
     inkscape:cy="11.475573"
     inkscape:window-width="1366"
     inkscape:window-height="708"
     inkscape:window-x="1920"
     inkscape:window-y="340"
     inkscape:window-maximized="1"
     inkscape:current-layer="layer1" />
  <defs
     id="defs1730">
    <clipPath
       id="clip5">
      <path
         d="M 29.40625,37 H 76 V 54 H 29.40625 Z m 0,0"
         id="path14" />
    </clipPath>
  </defs>
  <g
     inkscape:label="Layer 1"
     inkscape:groupmode="layer"
     id="layer1"
     transform="translate(-235.93461,-137.94709)">
    <g
       id="g1889">
      <path
         style="fill:#a8b0a8;fill-opacity:1;fill-rule:nonzero;stroke:none;stroke-width:0.352778"
         d="m 236.39212,138.01047 15.24524,0.0276 c 0.21221,0 0.40376,-0.0317 0.40376,0.42581 l -0.0193,5.02019 h -16.01556 v -5.03948 c 0,-0.226 0.0221,-0.43409 0.38585,-0.43409"
         id="path278" />
      <path
         style="fill:#fdfffd;fill-opacity:1;fill-rule:nonzero;stroke:none;stroke-width:0.352778"
         d="m 240.57584,140.58052 c 0.001,1.01285 -0.81993,1.83416 -1.83279,1.83416 -1.01285,0.001 -1.83417,-0.81993 -1.83554,-1.83279 0,0 0,-10e-4 0,-10e-4 0,-1.01286 0.82131,-1.83555 1.83279,-1.83555 1.01423,0 1.83554,0.81993 1.83554,1.83279 0,0 0,0.001 0,0.003"
         id="path280" />
      <path
         style="fill:#000000;fill-opacity:1;fill-rule:nonzero;stroke:none;stroke-width:0.352778"
         d="m 239.6498,140.37519 c -0.0524,-0.11438 -0.12953,-0.17226 -0.23151,-0.17226 -0.18879,0 -0.28387,0.12541 -0.28387,0.37483 0,0.24942 0.0951,0.37483 0.28387,0.37483 0.12265,0 0.20809,-0.0606 0.2577,-0.18328 l 0.2632,0.13642 c -0.12265,0.21911 -0.30592,0.3266 -0.55121,0.3266 -0.1888,0 -0.34038,-0.0579 -0.45338,-0.17363 -0.113,-0.11576 -0.1695,-0.27561 -0.1695,-0.47818 0,-0.2012 0.0565,-0.35967 0.17226,-0.4768 0.11575,-0.11852 0.26182,-0.17639 0.43959,-0.17639 0.25907,0 0.44373,0.10197 0.55673,0.30592 z m -1.20854,0 c -0.0537,-0.11438 -0.13229,-0.17226 -0.23702,-0.17226 -0.18466,0 -0.27836,0.12541 -0.27836,0.37483 0,0.24942 0.0937,0.37483 0.27836,0.37483 0.12265,0 0.20946,-0.0606 0.26321,-0.18328 l 0.25631,0.13642 c -0.12264,0.21911 -0.30592,0.3266 -0.55121,0.3266 -0.1888,0 -0.34038,-0.0579 -0.45338,-0.17363 -0.11438,-0.11576 -0.17088,-0.27561 -0.17088,-0.47818 0,-0.2012 0.0579,-0.35967 0.17502,-0.4768 0.11713,-0.11852 0.2632,-0.17639 0.43821,-0.17639 0.26045,0 0.44511,0.10197 0.55673,0.30592 z m -0.90537,-1.01562 c -0.34451,0.34727 -0.51538,0.75379 -0.51538,1.22095 0,0.46715 0.16949,0.86954 0.50987,1.20991 0.34037,0.34038 0.74552,0.50988 1.21543,0.50988 0.46991,0 0.87919,-0.17088 1.22645,-0.51539 0.32935,-0.31833 0.49472,-0.72071 0.49472,-1.2044 0,-0.48094 -0.16812,-0.88884 -0.50299,-1.2237 -0.33486,-0.33486 -0.74138,-0.50161 -1.21818,-0.50161 -0.4768,0 -0.88057,0.16812 -1.20992,0.50436 z m 2.69682,-0.27285 c 0.40652,0.40652 0.61047,0.904 0.61047,1.4938 0,0.58842 -0.19981,1.08038 -0.59944,1.47725 -0.42444,0.41755 -0.92604,0.62563 -1.50482,0.62563 -0.57051,0 -1.06385,-0.2067 -1.47726,-0.62011 -0.41341,-0.41342 -0.62012,-0.90813 -0.62012,-1.48277 0,-0.57602 0.20671,-1.0735 0.62012,-1.4938 0.40377,-0.4079 0.89573,-0.61047 1.47726,-0.61047 0.5898,0 1.08727,0.20257 1.49379,0.61047"
         id="path282" />
      <g
         clip-path="url(#clip5)"
         clip-rule="nonzero"
         id="g286"
         transform="matrix(0.35277777,0,0,0.35277777,225.56074,124.75926)">
        <path
           style="fill:#000000;fill-opacity:1;fill-rule:nonzero;stroke:none"
           d="m 30.257813,37.769531 h 44.035156 c 0.261719,0 0.472656,0.210938 0.472656,0.46875 0,0 0,6.03125 0,10.390625 H 43.289063 c -1.152344,2.085938 -3.375,3.5 -5.925782,3.5 -2.550781,0 -4.773437,-1.414062 -5.925781,-3.5 h -1.648437 c 0,-4.359375 0,-10.390625 0,-10.390625 0,-0.257812 0.210937,-0.46875 0.46875,-0.46875 z M 74.292969,37.382813 H 30.257813 c -0.472657,0 -0.855469,0.382812 -0.855469,0.855468 v 14.964844 c 0,0.105469 0.08594,0.191406 0.191406,0.191406 h 45.363281 c 0.105469,0 0.195313,-0.08594 0.195313,-0.191406 V 38.238281 c 0,-0.472656 -0.386719,-0.855468 -0.859375,-0.855468"
           id="path284" />
      </g>
      <path
         style="fill:#fdfffd;fill-opacity:1;fill-rule:nonzero;stroke:none;stroke-width:0.352778"
         d="m 247.53494,143.0224 c 0.011,0.0207 0.0248,0.0372 0.0427,0.051 0.0179,0.0124 0.0386,0.0221 0.0634,0.0276 0.0234,0.007 0.0482,0.01 0.0744,0.01 0.0179,0 0.0358,-10e-4 0.0565,-0.004 0.0193,-0.003 0.0386,-0.008 0.0551,-0.0165 0.0179,-0.008 0.0331,-0.0207 0.0441,-0.0345 0.011,-0.0152 0.0165,-0.0331 0.0165,-0.0565 0,-0.0234 -0.007,-0.0427 -0.0221,-0.0579 -0.0151,-0.0152 -0.0358,-0.0276 -0.0606,-0.0372 -0.0248,-0.01 -0.0537,-0.0193 -0.0841,-0.0262 -0.0317,-0.008 -0.0648,-0.0165 -0.0965,-0.0248 -0.0331,-0.008 -0.0661,-0.0193 -0.0978,-0.0317 -0.0303,-0.011 -0.0593,-0.0276 -0.0841,-0.0455 -0.0248,-0.0193 -0.0455,-0.0441 -0.0606,-0.0717 -0.0152,-0.0289 -0.0234,-0.0634 -0.0234,-0.10474 0,-0.0455 0.01,-0.0854 0.0289,-0.11988 0.0207,-0.0331 0.0455,-0.0606 0.0772,-0.0841 0.0317,-0.0221 0.0675,-0.0386 0.10749,-0.0496 0.04,-0.011 0.0799,-0.0165 0.11989,-0.0165 0.0469,0 0.091,0.006 0.13367,0.0165 0.0427,0.01 0.0813,0.0276 0.11438,0.0496 0.0331,0.0234 0.0592,0.0537 0.0785,0.0896 0.0207,0.0372 0.0289,0.0799 0.0289,0.13229 h -0.18879 c -10e-4,-0.0276 -0.008,-0.0496 -0.0179,-0.0661 -0.008,-0.0179 -0.022,-0.0317 -0.0372,-0.0413 -0.0152,-0.01 -0.0331,-0.0165 -0.0537,-0.0207 -0.0207,-0.006 -0.0427,-0.007 -0.0661,-0.007 -0.0165,0 -0.0317,10e-4 -0.0469,0.006 -0.0165,0.003 -0.0303,0.008 -0.0427,0.0165 -0.0138,0.008 -0.0248,0.0193 -0.0331,0.0317 -0.008,0.0124 -0.0124,0.0289 -0.0124,0.0469 0,0.0179 0.004,0.0317 0.01,0.0427 0.007,0.011 0.0207,0.0207 0.04,0.0303 0.0193,0.01 0.0469,0.0179 0.0813,0.0276 0.0345,0.01 0.0786,0.0207 0.13505,0.0344 0.0165,0.004 0.04,0.01 0.0689,0.0179 0.0289,0.01 0.0593,0.0234 0.0882,0.0427 0.0289,0.0193 0.0537,0.0441 0.0744,0.0758 0.0221,0.0331 0.0331,0.073 0.0331,0.12402 0,0.04 -0.008,0.0786 -0.0248,0.113 -0.0152,0.0345 -0.0386,0.0648 -0.0703,0.091 -0.0303,0.0248 -0.0703,0.0441 -0.11575,0.0592 -0.0469,0.0138 -0.0992,0.0207 -0.15986,0.0207 -0.0496,0 -0.0965,-0.006 -0.14331,-0.0179 -0.0469,-0.0124 -0.0868,-0.0317 -0.12265,-0.0565 -0.0344,-0.0262 -0.0634,-0.0593 -0.0841,-0.0992 -0.0207,-0.04 -0.0303,-0.0868 -0.0289,-0.14194 h 0.18879 c 0,0.0289 0.006,0.0551 0.0165,0.0758"
         id="path288" />
      <path
         style="fill:#fdfffd;fill-opacity:1;fill-rule:nonzero;stroke:none;stroke-width:0.352778"
         d="m 248.64977,142.89838 -0.11162,-0.32798 h -0.003 l -0.11713,0.32798 z m -0.011,-0.54708 0.33348,0.89159 h -0.20395 l -0.0675,-0.19844 h -0.33349 l -0.0689,0.19844 h -0.19706 l 0.33624,-0.89159 h 0.2012"
         id="path290" />
      <path
         style="fill:#fdfffd;fill-opacity:1;fill-rule:nonzero;stroke:none;stroke-width:0.352778"
         d="m 243.98924,143.08992 c 0.0179,0 0.0372,-0.001 0.0551,-0.006 0.0165,-0.004 0.0317,-0.01 0.0455,-0.0193 0.0138,-0.008 0.0248,-0.0207 0.0317,-0.0358 0.008,-0.0138 0.0124,-0.0331 0.0124,-0.0565 0,-0.0455 -0.0138,-0.0786 -0.0386,-0.0978 -0.0262,-0.0193 -0.0606,-0.0289 -0.10335,-0.0289 h -0.2136 v 0.24391 z m -0.0124,-0.37758 c 0.0358,0 0.0648,-0.008 0.0868,-0.0248 0.0221,-0.0179 0.0331,-0.0441 0.0331,-0.0813 0,-0.0207 -0.004,-0.0386 -0.011,-0.051 -0.007,-0.0138 -0.0165,-0.0234 -0.0303,-0.0317 -0.0124,-0.007 -0.0262,-0.0124 -0.0427,-0.0152 -0.0165,-0.003 -0.0331,-0.004 -0.051,-0.004 h -0.18328 v 0.20808 z m 0.0248,-0.36104 c 0.0427,0 0.0813,0.004 0.11714,0.011 0.0345,0.008 0.0648,0.0207 0.0896,0.0372 0.0248,0.0179 0.0441,0.04 0.0579,0.0675 0.0138,0.0289 0.0207,0.0634 0.0207,0.10473 0,0.0455 -0.01,0.0827 -0.0303,0.113 -0.0207,0.0303 -0.051,0.0537 -0.091,0.073 0.0551,0.0165 0.0965,0.0441 0.12402,0.0841 0.0262,0.0386 0.0413,0.0868 0.0413,0.14193 0,0.0455 -0.01,0.0841 -0.0276,0.11714 -0.0165,0.0331 -0.0413,0.0592 -0.0703,0.0799 -0.0289,0.0207 -0.0634,0.0358 -0.1006,0.0469 -0.0386,0.01 -0.0772,0.0152 -0.11713,0.0152 h -0.4327 v -0.89159 h 0.41892"
         id="path292" />
      <path
         style="fill:#fdfffd;fill-opacity:1;fill-rule:nonzero;stroke:none;stroke-width:0.352778"
         d="m 244.36407,142.3513 h 0.22049 l 0.20808,0.35277 0.20671,-0.35277 h 0.2191 l -0.33072,0.54983 v 0.34176 h -0.19569 v -0.34727 l -0.32797,-0.54432"
         id="path294" />
      <path
         style="fill:#fdfffd;fill-opacity:1;fill-rule:nonzero;stroke:none;stroke-width:0.352778"
         d="m 249.70535,139.96178 c 10e-4,0.78686 -0.63666,1.42489 -1.42214,1.42489 -0.78686,0 -1.42489,-0.63666 -1.42489,-1.42214 0,-0.001 0,-0.001 0,-0.003 0,-0.78686 0.63665,-1.42351 1.42214,-1.42489 0.78686,0 1.42489,0.63665 1.42489,1.42351 0,0 0,0.001 0,0.001"
         id="path296" />
      <path
         style="fill:#000000;fill-opacity:1;fill-rule:nonzero;stroke:none;stroke-width:0.352778"
         d="m 248.27632,138.68296 c 0.35278,0 0.65457,0.1254 0.90124,0.37482 0.24942,0.24667 0.37482,0.54846 0.37482,0.904 0,0.35829 -0.12264,0.65594 -0.36655,0.89297 -0.2577,0.25493 -0.56087,0.38171 -0.90951,0.38171 -0.35002,0 -0.65043,-0.1254 -0.90261,-0.37758 -0.25218,-0.25218 -0.37896,-0.55122 -0.37896,-0.8971 0,-0.34589 0.12815,-0.64768 0.38309,-0.904 0.24391,-0.24942 0.54433,-0.37482 0.89848,-0.37482 z m -0.004,-0.28112 c -0.43271,0 -0.79789,0.15158 -1.09692,0.45199 -0.3073,0.31282 -0.46027,0.68213 -0.46027,1.10795 0,0.42719 0.15297,0.79375 0.46027,1.09967 0.3073,0.3073 0.67248,0.46027 1.09692,0.46027 0.42857,0 0.80064,-0.15434 1.11621,-0.4644 0.29628,-0.29352 0.4451,-0.6587 0.4451,-1.09554 0,-0.43684 -0.1502,-0.80616 -0.45337,-1.10795 -0.30179,-0.30041 -0.67111,-0.45199 -1.10794,-0.45199"
         id="path298" />
      <path
         style="fill:#000000;fill-opacity:1;fill-rule:nonzero;stroke:none;stroke-width:0.352778"
         d="m 247.58041,139.74129 c 0.062,-0.39136 0.339,-0.6022 0.68489,-0.6022 0.49747,0 0.80064,0.36242 0.80064,0.84336 0,0.46991 -0.32246,0.83509 -0.80891,0.83509 -0.33349,0 -0.6339,-0.20533 -0.68764,-0.60909 h 0.39274 c 0.011,0.20946 0.14745,0.28387 0.34175,0.28387 0.22187,0 0.36656,-0.2067 0.36656,-0.5209 0,-0.33073 -0.1254,-0.50574 -0.35829,-0.50574 -0.17088,0 -0.3197,0.062 -0.35002,0.27561 h 0.11438 l -0.31006,0.30868 -0.30868,-0.30868 h 0.12264"
         id="path300" />
      <path
         style="fill:#fdfffd;fill-opacity:1;fill-rule:nonzero;stroke:none;stroke-width:0.352778"
         d="m 245.89921,139.99347 c 0,0.79789 -0.64768,1.44419 -1.44419,1.44419 -0.79788,0 -1.44418,-0.6463 -1.44418,-1.44419 0,-0.79788 0.6463,-1.44418 1.44418,-1.44418 0.79651,0 1.44419,0.6463 1.44419,1.44418"
         id="path302" />
      <path
         style="fill:#000000;fill-opacity:1;fill-rule:nonzero;stroke:none;stroke-width:0.352778"
         d="m 244.87257,139.57593 c 0,-0.0551 -0.0455,-0.1006 -0.1006,-0.1006 h -0.63803 c -0.0551,0 -0.1006,0.0455 -0.1006,0.1006 v 0.63803 h 0.17777 v 0.75516 h 0.48369 v -0.75516 h 0.17777 v -0.63803"
         id="path304" />
      <path
         style="fill:#000000;fill-opacity:1;fill-rule:nonzero;stroke:none;stroke-width:0.352778"
         d="m 244.67137,139.17216 c 0,0.12127 -0.0978,0.21911 -0.2191,0.21911 -0.11989,0 -0.21773,-0.0978 -0.21773,-0.21911 0,-0.11989 0.0978,-0.21773 0.21773,-0.21773 0.12126,0 0.2191,0.0978 0.2191,0.21773"
         id="path306" />
      <path
         style="fill:#000000;fill-opacity:1;fill-rule:evenodd;stroke:none;stroke-width:0.352778"
         d="m 244.45502,138.68296 c 0.35416,0 0.65457,0.1254 0.90124,0.37482 0.2508,0.24667 0.37482,0.54846 0.37482,0.904 0,0.35829 -0.12126,0.65594 -0.36655,0.89297 -0.2577,0.25493 -0.56087,0.38171 -0.90951,0.38171 -0.34864,0 -0.64905,-0.1254 -0.90261,-0.37758 -0.25218,-0.25218 -0.37759,-0.55122 -0.37759,-0.8971 0,-0.34589 0.12678,-0.64768 0.38172,-0.904 0.24529,-0.24942 0.54433,-0.37482 0.89848,-0.37482 z m -0.004,-0.28112 c -0.43271,0 -0.79789,0.15158 -1.09692,0.45199 -0.3073,0.31282 -0.46027,0.68213 -0.46027,1.10795 0,0.42581 0.15297,0.79375 0.46027,1.09967 0.3073,0.30593 0.67248,0.46027 1.09692,0.46027 0.42994,0 0.80202,-0.15434 1.11621,-0.4644 0.29765,-0.29352 0.4451,-0.6587 0.4451,-1.09554 0,-0.43684 -0.15158,-0.80616 -0.45199,-1.10795 -0.30179,-0.30041 -0.67249,-0.45199 -1.10932,-0.45199"
         id="path308" />
    </g>
  </g>
</svg>
